<?xml version="1.0" encoding="iso-8859-1"?>
<!-- Generator: Adobe Illustrator 19.0.0, SVG Export Plug-In . SVG Version: 6.00 Build 0)  -->
<svg version="1.1" id="Layer_1" xmlns="http://www.w3.org/2000/svg" xmlns:xlink="http://www.w3.org/1999/xlink" x="0px" y="0px"
	 viewBox="0 0 508 508" style="enable-background:new 0 0 508 508;" xml:space="preserve">
<g>
	<path style="fill:#13A289;" d="M373.4,188l-11.6-11.6c-4.4-4.4-12-4.4-16.4,0L231.8,290l-69.6-69.6c-4.4-4.4-12-4.4-16.4,0
		L134.2,232c-4.4,4.4-4.4,12,0,16.4l89.2,89.2c4.4,4.4,12,4.4,16.4,0l0,0l0,0l10.4-10.4l0.8-0.8l121.6-121.6
		C377.8,200,377.8,192.8,373.4,188z"/>
	<path style="fill:#13A289;" d="M497,304.8c-4.4-4.4-8.8-6.8-15.6-6.8H342.6c-13.2,0-24,10.4-24,23.6v23.6c0,13.2,10.8,24.8,24,24.8
		h49.2c-33.6,40-83.2,63.2-136.4,63.2C157,433.2,77,352.8,77,254.4S157,75.6,255.4,75.6c73.6,0,140.8,46,166.8,115.2
		c7.2,18.4,27.6,27.6,46,20.8c18.4-7.2,27.6-27.6,20.8-46C452.2,69.2,358.6,4.4,255.4,4.4c-137.6,0-250,112-250,250
		s112.4,250,250,250c68.4,0,131.2-28,179.2-75.6v32c0,13.2,10.4,25.6,23.6,25.6h23.6c13.2,0,21.2-12.8,21.2-25.6V347.2v-24.8
		C502.6,315.2,501.4,309.2,497,304.8z"/>
</g>
<path style="fill:#54B265;" d="M255.4,24c54.4,0,106.4,19.6,146.8,53.2c0.4,0.4,1.2,0.8,1.6,1.6c0,0,20.8,20.4,28.4,28.4
	c17.2,18,28.8,41.2,38,65.2c1.6,4,1.2,8.4-0.4,12c-1.6,4-4.8,6.8-8.8,8.4c-2,0.8-3.6,1.2-5.6,1.2c-6.4,0-12.4-4-14.8-10.4
	C411.4,107.2,337,55.6,255,55.6C145.8,55.6,56.6,144.4,56.6,254c0,109.2,88.8,198.4,198.4,198.4c58.4,0,113.6-25.6,151.6-70.4
	c4.8-6,6-14,2.8-21.2s-10.4-11.6-18-11.6h-49.2c-2,0-4-2-4-4v-23.6c0-1.2,0.8-2,1.2-2.8c0.4-0.4,1.6-1.2,2.8-1.2H481
	c1.2,0,2.8,0.4,3.6,1.2c0.4,0.4,1.6,1.2,1.6,2.8v24.8V460c0,2-2.8,5.6-5.2,5.6h-23.6c-2,0-3.6-3.6-3.6-5.6v-32
	c0-8-5.2-15.2-12.8-18.4c-2.4-0.8-5.2-1.6-7.6-1.6c-5.2,0-10.4,2-14.4,6c-43.2,44.4-103.2,69.6-164.8,69.6
	c-126.8,0-230-103.2-230-230C25.4,127.2,128.6,24,255.4,24"/>
<path d="M231.8,345.2c-4.4,0-8-1.6-11.2-4.4l-89.2-89.2c-6-6-6-16,0-22.4l11.6-11.6c6-6,16.4-6,22.4,0l66.8,66.8L342.6,174
	c6-6,16.4-6,22.4,0l11.6,11.6l0,0c6,6,6,16,0,22.4L243.4,341.2C240.2,343.6,236.2,345.2,231.8,345.2L231.8,345.2z M153.8,221.2
	c-2,0-4,0.8-5.6,2.4l-11.6,11.6c-3.2,3.2-3.2,8,0,10.8l89.2,89.2c1.6,1.6,3.2,2.4,5.6,2.4l0,0c2,0,4-0.8,5.6-2.4L370.6,202
	c3.2-3.2,2.8-8,0-10.8L359,179.6c-2.8-2.8-8-2.8-10.8,0L234.6,293.2c-1.6,1.6-4,1.6-5.6,0l-69.6-69.6
	C157.8,222,155.8,221.2,153.8,221.2z"/>
<path d="M255.4,508c-140,0-254-114-254-254s114-254,254-254c104.8,0,200,66,237.2,163.6c7.6,20.4-2.4,43.6-23.2,51.2
	c-10,3.6-20.8,3.6-30.4-0.8c-9.6-4.4-17.2-12-20.8-22C392.6,124.8,327,79.6,255,79.6c-96.4,0-174.4,78.4-174.4,175.2
	c0,96.8,78.4,175.6,174.4,175.6c50,0,96-19.2,127.6-53.2h-40c-15.6,0-28-18-28-32.8v-23.6c0-14,11.2-23.6,28-23.6h138.8
	c6.4,0,12.8,0.4,18.4,6c4.8,4.8,6.8,9.6,6.8,17.6v138.4c0,14-8.8,33.6-25.2,33.6h-23.6c-15.6,0-27.6-18-27.6-33.6v-22.8
	C381.4,482.8,319.8,508,255.4,508z M255.4,8C119.8,8,9.4,118.4,9.4,254s110.4,246,246,246c65.2,0,127.6-26.4,176.4-74.4
	c1.2-1.2,2.8-1.6,4.4-0.8c1.6,0.8,2.4,2,2.4,3.6v32c0,11.2,9.2,25.6,19.6,25.6h23.6c10.4,0,17.2-15.2,17.2-25.6V322
	c0-5.6-1.2-8.4-4.4-12l0,0c-3.2-3.2-6.4-3.6-12.8-3.6H342.6c-9.6,0-20,4-20,15.6v23.6c0,10.8,9.6,24.8,20,24.8h49.2
	c1.6,0,2.8,0.8,3.6,2.4s0.4,3.2-0.4,4.4c-33.2,39.6-84,62.4-139.6,62.4C154.6,439.6,73,357.2,73,256c0-100.8,82-183.2,182.4-183.2
	c75.6,0,144,47.2,170.8,117.2c3.2,8,8.8,14,16.8,17.6c7.6,3.6,16.4,3.6,24.4,0.8c16.4-6.4,24.4-24.4,18.4-40.8
	C449.4,72,357,8,255.4,8z"/>
<path d="M255.4,488c-129.2,0-234-104.8-234-234s104.8-234,234-234c0,0,0,0,0.4,0c54,0,107.2,19.2,149.2,54l1.6,1.6
	c1.6,1.6,2,4,0.4,5.6s-4,2-5.6,0.4l-1.6-1.2C359,46.8,307.8,28,255.4,28c0,0,0,0-0.4,0C130.6,28,29.4,129.6,29.4,254
	c0,124.8,101.6,226,226,226c60.4,0,119.2-24.8,162-68.4c4.4-4.4,10.8-7.2,17.2-7.2c3.2,0,6.4,0.8,9.2,1.6c9.2,3.6,15.2,12.4,15.2,22
	v37.2v0.4h24v-0.4V322l0,0l0,0c-0.4,0-0.8-0.4-1.6-0.4h-138H343v23.2h49.2c9.2,0,17.6,5.6,21.6,13.6c4,8.4,2.4,18.4-3.6,25.6
	c-38.8,45.6-95.2,72-154.8,72C143.8,456,53,365.2,53,253.6S143.8,51.2,255.4,51.2c83.6,0,159.6,52.4,189.2,130.4
	c2.4,6,9.2,9.2,15.2,6.8c2.8-1.2,5.2-3.2,6.8-6.4c1.2-2.8,1.2-6,0.4-9.2c-8.8-23.2-21.6-44.8-37.6-64c-1.6-1.6-1.2-4.4,0.4-5.6
	c1.6-1.6,4.4-1.2,5.6,0.4c16.4,20,29.6,42,38.8,66.4c2,4.8,1.6,10.4-0.4,15.2c-2,4.8-6,8.4-11.2,10.4c-2.4,0.8-4.8,1.2-7.2,1.2
	c-8,0-15.6-5.2-18.4-12.8C408.6,109.2,335.4,58.8,255.4,58.8C148.2,58.8,61,146,61,253.2c0,107.2,87.2,194.4,194.4,194.4
	c57.2,0,111.2-25.2,148.4-69.2c4-4.8,4.8-11.2,2.4-16.8c-2.4-5.6-8.4-9.2-14.4-9.2h-49.2c-4.4,0-8-3.6-8-8v-23.6
	c0-3.2,1.6-4.8,2.4-5.6c0.4-0.4,1.2-1.2,4.8-2c0.4,0,0.4,0,0.8,0h138.8c0.4,0,0.4,0,0.8,0c4,0.8,5.2,2,5.6,2.4
	c0.8,0.8,2.8,2.4,2.8,5.6v143.6c0,4.4-3.6,8.4-8,8.4h-24.4c-4,0-7.6-3.6-7.6-8.4v-37.2c0-6.4-4-12-10-14.8c-2-0.8-4-1.2-6-1.2
	c-4.4,0-8.4,1.6-11.2,4.8C379,462.4,317.8,488,255.4,488z"/>
<g>
</g>
<g>
</g>
<g>
</g>
<g>
</g>
<g>
</g>
<g>
</g>
<g>
</g>
<g>
</g>
<g>
</g>
<g>
</g>
<g>
</g>
<g>
</g>
<g>
</g>
<g>
</g>
<g>
</g>
</svg>
